<?xml version="1.0" encoding="UTF-8"?>
<svg id="logosandtypes_com" data-name="logosandtypes com" xmlns="http://www.w3.org/2000/svg" viewBox="0 0 150 150">
  <defs>
    <style>
      .cls-1 {
        fill: #e83330;
      }

      .cls-2 {
        fill: none;
      }
    </style>
  </defs>
  <path class="cls-2" d="M0,0H150V150H0V0Z"/>
  <path class="cls-1" d="M75.17,7.01c-21.01,0-39.79,9.54-52.25,24.52,2.27,11.27,5.5,21.32,9.64,29.91-2.93,7.01-4.64,21.07-6.21,28.47-6.25-7.59-12.35-17.63-17.23-30.85-5.37,21.04,.95,45.14,14.9,60.57l8.64-46.89c4.31-20.77,16.62-38.83,42.76-39.52,17.04,0,32,10.25,38.1,26.1,13.73,38.42-26.82,69.19-63.49,49.91l3.95-21.46c10,7.37,26.61,9.49,34.29,1.88,6.89-6.24,9.15-14.82,6.02-22.94-2.39-6.23-8.63-12.91-18.87-12.9-18.56,.13-22.02,19.92-22.48,22.51,0,0-10.69,58.05-10.69,58.05,44.04,25.28,101.61-8.32,100.88-59.43,0-37.53-30.42-67.95-67.95-67.95Z"/>
</svg>